# xmcd
#
# Track frame offsets:
# 150
# 13620
# 33348
# 49303
# 66000
# 89075
# 103643
# 117682
# 128208
# 139101
# 154010
# 169305
# 183416
# 193795
# 206047
# 223076
# 235363
# 247582
# 263286
# 280968
# 290155
# 308073
# 322600
# 338016
#
# Disc length: 4755 seconds
#
#
# Revision: 0
# Processed by: cddbd v1.5.2PL0 Copyright (c) Steve Scherf et al.
# Submitted via: FreeRIP 2.944 
#
DISCID=65129118
DTITLE=LINEDANCE CD 1
DYEAR=2011
DGENRE=
TTITLE0=JUNE CARTER - KEEP ON THE SUNNY SIDE
TTITLE1=ALAN JACKSON - COWGIRL TWIST
TTITLE2=A.T.H.E.N.A - ZORBA SIRTAKI
TTITLE3=ALAN JACKSON - CHATTAHOOCHEE
TTITLE4=ALAN JACKSON - GOOD TIME
TTITLE5=ALEXANDRA STAN - MR. SAXOBEAT
TTITLE6=ANDREAS GABALIER - I SING A LIAD FÜR DI
TTITLE7=BILL HALEY - ROCK AROUND THE CLOCK
TTITLE8=BILLY GILMAN - LITTLE BITTY PRETTY ONE
TTITLE9=REDNEX - OH SUZANNA
TTITLE10=REDNEX - ACHY BREAKY HEART
TTITLE11=BONEY M - GOING BACK WEST
TTITLE12=BOXCAR WILLIE - JAMBALAYA
TTITLE13=CABALLO DORADO - ARRIBA ABAJO
TTITLE14=CARO EMERALD - A NIGHT LIKE THIS
TTITLE15=DION - THE WANDERER
TTITLE16=JACKIE WILSON - REED PETITE
TTITLE17=LACY J. DALTON - BLACK COFFEE
TTITLE18=MAVERICKS - PIZZIRICCO
TTITLE19=QUEEN - WE WILL ROCK YOU
TTITLE20=RANDY NEWMAN - WE BELONG TOGETHER
TTITLE21=REDNEX - COTTON EYE JOE
TTITLE22=SHAM ROCK - IRISH STEW
TTITLE23=SHANIA TWAIN - ANY MAN OF MINE
EXTD=
EXTT0=
EXTT1=
EXTT2=
EXTT3=
EXTT4=
EXTT5=
EXTT6=
EXTT7=
EXTT8=
EXTT9=
EXTT10=
EXTT11=
EXTT12=
EXTT13=
EXTT14=
EXTT15=
EXTT16=
EXTT17=
EXTT18=
EXTT19=
EXTT20=
EXTT21=
EXTT22=
EXTT23=
PLAYORDER=
